<svg width="50" height="50" viewBox="0 0 50 50" fill="none" xmlns="http://www.w3.org/2000/svg">
<path d="M49.1667 48.3332H45.7818C45.8174 48.0594 45.8334 47.7798 45.8334 47.4999C45.8334 45.1478 44.4798 43.1456 42.5001 42.2185V14.1667C42.5001 13.6667 42.1668 13.3334 41.6668 13.3334H29.1668V0.833361C29.1668 0.333362 28.8335 6.10566e-05 28.3335 6.10566e-05H5.8335C5.3333 -3.65996e-05 5 0.333264 5 0.833264V48.3332H0.833301C0.333301 48.3332 0 48.6665 0 49.1665C0 49.6665 0.333301 49.9999 0.833301 49.9999H5.8333H8.3333H28.3333H44.75H49.1667C49.6667 49.9999 50 49.6666 50 49.1666C50 48.6666 49.6667 48.3332 49.1667 48.3332ZM40.8333 41.7254C40.5613 41.6874 40.2834 41.6665 40 41.6665C39.3709 41.6665 38.7538 41.7737 38.1708 41.974C38.0256 41.7804 37.7915 41.6665 37.5 41.6665C37 41.6665 36.6667 41.9998 36.6667 42.4998V42.7552C36.3509 42.9828 36.0572 43.2423 35.7907 43.5309C35.7486 43.5754 35.7072 43.6205 35.6667 43.6664C34.9762 42.8033 34.0867 42.1789 33.0811 41.8748C32.9366 41.7423 32.7375 41.6664 32.5 41.6664C32.4071 41.6664 32.32 41.6781 32.2396 41.7C32.0515 41.6781 31.8604 41.6664 31.6667 41.6664C31.1444 41.6664 30.5563 41.7342 30.0799 41.9277C30.0209 41.9476 29.9623 41.9681 29.9043 41.9901C29.3284 41.5219 28.6549 41.1849 27.9451 40.9995C27.9376 40.9974 27.9299 40.9959 27.9225 40.9939C27.8605 40.978 27.7984 40.9628 27.736 40.9493C27.6854 40.9381 27.6343 40.9285 27.5832 40.9189C27.561 40.9148 27.5389 40.9104 27.5166 40.9066C27.463 40.8973 27.4092 40.8891 27.355 40.8816C27.3308 40.8782 27.3065 40.8751 27.2822 40.8721C27.2325 40.866 27.1826 40.8602 27.1324 40.8556C27.0958 40.8522 27.0591 40.8497 27.0224 40.847C26.9831 40.8443 26.9439 40.8411 26.9044 40.8392C26.8252 40.8354 26.746 40.833 26.6667 40.833C26.6054 40.833 26.5445 40.8343 26.484 40.8366C26.4443 40.8379 26.4048 40.8404 26.3652 40.8426C26.3494 40.8436 26.3334 40.8443 26.3176 40.8454C25.5584 40.8957 24.8125 41.11 24.1666 41.4895V15H28.3333H40.8333V41.7254ZM6.6667 1.66666H27.5V13.3334H23.3333C22.8333 13.3334 22.5 13.6667 22.5 14.1667V40.0833C22.0741 39.6575 21.5832 39.2972 21.0487 39.0153C21.0016 38.9901 20.9539 38.9657 20.9061 38.9418C20.8872 38.9326 20.8686 38.9229 20.8496 38.9138C20.2549 38.6253 19.6077 38.4361 18.9314 38.3653C18.922 38.3643 18.9124 38.3635 18.9028 38.3625C18.8243 38.3547 18.7454 38.3486 18.6661 38.344C18.6451 38.3427 18.6241 38.3414 18.603 38.3404C18.5135 38.3362 18.4236 38.3333 18.3333 38.3333C17.0931 38.3333 15.944 38.7413 15 39.4268V39.1667C15 38.6667 14.6667 38.3334 14.1667 38.3334C13.6667 38.3334 13.3334 38.6667 13.3334 39.1667V40.8334C13.3334 40.9584 13.3542 41.073 13.3933 41.1746C12.9841 41.8489 12.7021 42.609 12.5834 43.4168C11.624 43.5265 10.7468 43.8717 10.0001 44.3878V44.1668C10.0001 43.6668 9.6668 43.3335 9.1668 43.3335C8.6668 43.3335 8.3335 43.6668 8.3335 44.1668V45.8335C8.3335 45.9308 8.34648 46.0215 8.37051 46.1049C7.95732 46.7732 7.67617 47.5293 7.56035 48.3334H6.66689V1.66666H6.6667ZM12.9541 45.0172C12.9706 45.0158 12.9873 45.0148 13.0039 45.0135C13.0479 45.0101 13.0918 45.0068 13.1361 45.0047C13.2015 45.0018 13.2672 44.9998 13.3334 44.9998C13.8334 44.9998 14.1667 44.6665 14.1667 44.1665C14.1667 41.8332 16 39.9998 18.3334 39.9998C20.4167 39.9998 22.1667 41.4998 22.4167 43.5831C22.473 43.8085 22.6068 43.9943 22.7898 44.1177C22.8014 44.1258 22.8132 44.1334 22.8252 44.141C22.8381 44.1489 22.8509 44.1569 22.8643 44.1641C22.895 44.1811 22.9271 44.1966 22.9604 44.21C22.9617 44.2105 22.9629 44.211 22.9642 44.2116C23.0023 44.2268 23.0422 44.2396 23.0833 44.2498C23.0834 44.2498 23.0834 44.2498 23.0835 44.2499C23.1331 44.2664 23.1895 44.2728 23.249 44.2709C23.5229 44.2749 23.7777 44.1251 23.9167 43.9168C23.9167 43.9167 23.9168 43.9167 23.9169 43.9166L24.0002 43.8333C24.6669 43 25.5835 42.5 26.6669 42.5C27.2296 42.5 27.792 42.6577 28.2968 42.9524C27.3027 43.8871 26.7391 45.1055 26.6735 46.4092C26.6691 46.4945 26.6669 46.5804 26.6669 46.6667C26.6669 47.2462 26.7633 47.8016 26.954 48.3334H9.25C9.64004 46.5392 11.1254 45.1833 12.9541 45.0172ZM28.9213 48.3332C28.6029 47.7948 28.4167 47.1581 28.4167 46.5832C28.4167 45.6618 28.78 44.8316 29.4044 44.2247C29.5237 44.1141 29.651 44.012 29.7854 43.9195C29.9155 43.9204 30.0465 43.8933 30.1667 43.8332C32 42.8332 34.1667 43.7499 34.8334 45.5832C34.9167 45.8332 35.1667 46.0832 35.5834 46.0832C35.6625 46.0832 35.75 46.058 35.8379 46.0133C36.047 45.979 36.2123 45.8255 36.3334 45.5832C36.6563 44.897 37.1563 44.3492 37.7649 43.9651C37.8963 43.9285 38.0091 43.8636 38.0988 43.7756C38.6712 43.4879 39.32 43.3332 40.0001 43.3332C42.3334 43.3332 44.1668 45.1665 44.1668 47.4999C44.1668 47.7499 44.1668 48.0832 44.0835 48.3332H28.9213Z" fill="#2563EB"/>
</svg>
